<?xml version="1.0" encoding="UTF-8" standalone="no"?>
<svg
   xmlns:dc="http://purl.org/dc/elements/1.1/"
   xmlns:cc="http://creativecommons.org/ns#"
   xmlns:rdf="http://www.w3.org/1999/02/22-rdf-syntax-ns#"
   xmlns:svg="http://www.w3.org/2000/svg"
   xmlns="http://www.w3.org/2000/svg"
   xmlns:sodipodi="http://sodipodi.sourceforge.net/DTD/sodipodi-0.dtd"
   xmlns:inkscape="http://www.inkscape.org/namespaces/inkscape"
   inkscape:version="1.0 (4035a4f, 2020-05-01)"
   sodipodi:docname="icon_android-store.svg"
   id="svg848"
   version="1.1"
   viewBox="0 0 108 108"
   height="108"
   width="108">
  <metadata
     id="metadata852">
    <rdf:RDF>
      <cc:Work
         rdf:about="">
        <dc:format>image/svg+xml</dc:format>
        <dc:type
           rdf:resource="http://purl.org/dc/dcmitype/StillImage" />
        <dc:title></dc:title>
      </cc:Work>
    </rdf:RDF>
  </metadata>
  <sodipodi:namedview
     inkscape:current-layer="svg848"
     inkscape:window-maximized="1"
     inkscape:window-y="23"
     inkscape:window-x="0"
     inkscape:cy="54"
     inkscape:cx="58.172626"
     inkscape:zoom="6.7962963"
     showgrid="false"
     id="namedview850"
     inkscape:window-height="975"
     inkscape:window-width="1920"
     inkscape:pageshadow="2"
     inkscape:pageopacity="0"
     guidetolerance="10"
     gridtolerance="10"
     objecttolerance="10"
     borderopacity="1"
     bordercolor="#666666"
     pagecolor="#ffffff" />
  <defs
     id="defs838">
    <linearGradient
       gradientUnits="userSpaceOnUse"
       gradientTransform="scale(0.86070391,1.1618397)"
       y2="5.4148472"
       y1="65.902833"
       x2="62.896081"
       x1="62.896081"
       id="logo-a">
      <stop
         id="stop833"
         stop-color="#0070CA"
         offset="0%" />
      <stop
         id="stop835"
         stop-color="#44FFD8"
         offset="100%" />
    </linearGradient>
  </defs>
  <g
     transform="matrix(1.3,0,0,1.3,-16.749392,-16.169173)"
     id="g846"
     fill-rule="evenodd"
     fill="none">
    <path
       id="path840"
       d="m 74.297786,80.475262 c 0,1.832913 -6.336116,3.319223 -14.152135,3.319223 -7.81602,0 -14.152136,-1.48631 -14.152136,-3.319223 0,-1.832913 6.336116,-3.319223 14.152136,-3.319223 7.816019,0 14.152135,1.48631 14.152135,3.319223"
       fill-opacity="0.1"
       fill="#000000" />
    <path
       style="fill:url(#logo-a)"
       id="path842"
       d="M 54.134757,24 C 43.599515,24 35.052136,32.847087 35,43.372427 v 0 0.227476 c 0.05767,16.391942 11.057476,27.40165 16.350583,31.753107 v 0 c 0.770388,0.633495 1.93631,0.234466 2.155048,-0.738641 v 0 l 7.454272,-33.107767 2.282912,0.514078 -7.126601,31.65233 c -0.212039,0.942524 0.898543,1.614174 1.630776,0.984174 v 0 C 63.291165,69.883398 73.269806,59.118641 73.269806,43.468835 v 0 C 73.269806,32.901262 64.702621,24 54.134757,24 Z"
       fill="url(#logo-a)" />
    <path
       id="path844"
       d="M 63.404466,35.974864 C 54.578058,34.081952 45.885049,39.51166 43.650777,48.17234 c -0.09553,0.370485 0.133107,0.747378 0.507087,0.827767 l 15.729903,3.373398 15.729903,3.373398 c 0.373981,0.08039 0.737184,-0.169806 0.801845,-0.54699 1.513689,-8.815049 -4.18835,-17.332136 -13.015049,-19.225049"
       fill="#ff3b5f" />
  </g>
</svg>
