<svg xmlns="http://www.w3.org/2000/svg" width="108" height="108" viewBox="0 0 108 108">
  <defs>
    <linearGradient id="logo-a" x1="50%" x2="50%" y1="101.76%" y2="-34.28%">
      <stop offset="0%" stop-color="#0070CA"/>
      <stop offset="100%" stop-color="#44FFD8"/>
    </linearGradient>
  </defs>
  <g fill="none" fill-rule="evenodd">
    <path fill="#000" fill-opacity=".1" d="M74.2977864,80.4752621 C74.2977864,82.3081748 67.9616699,83.7944854 60.1456505,83.7944854 C52.3296311,83.7944854 45.9935146,82.3081748 45.9935146,80.4752621 C45.9935146,78.6423495 52.3296311,77.1560388 60.1456505,77.1560388 C67.9616699,77.1560388 74.2977864,78.6423495 74.2977864,80.4752621"/>
    <path fill="url(#logo-a)" d="M54.1347573,24 C43.5995146,24 35.0521359,32.8470874 35,43.3724272 L35,43.3724272 L35,43.5999029 C35.0576699,59.9918447 46.0574757,71.0015534 51.3505825,75.3530097 L51.3505825,75.3530097 C52.1209709,75.9865049 53.2868932,75.5874757 53.5056311,74.6143689 L53.5056311,74.6143689 L60.9599029,41.5066019 L63.2428155,42.0206796 L56.1162136,73.6730097 C55.9041748,74.615534 57.0147573,75.2871845 57.7469903,74.6571845 L57.7469903,74.6571845 C63.291165,69.8833981 73.2698058,59.1186408 73.2698058,43.468835 L73.2698058,43.468835 C73.2698058,32.9012621 64.7026214,24 54.1347573,24 Z"/>
    <path fill="#FF3B5F" d="M63.404466,35.9748641 C54.5780583,34.0819515 45.8850485,39.5116602 43.6507767,48.1723398 C43.5552427,48.5428252 43.7838835,48.9197184 44.1578641,49.0001068 L59.887767,52.3735049 L75.6176699,55.7469029 C75.9916505,55.8272913 76.3548544,55.5770971 76.4195146,55.1999126 C77.9332039,46.3848641 72.231165,37.8677767 63.404466,35.9748641"/>
  </g>
</svg>
