<svg id="Livello_1" data-name="Livello 1" xmlns="http://www.w3.org/2000/svg" xmlns:xlink="http://www.w3.org/1999/xlink" viewBox="0 0 108 108"><defs><style>.cls-1{fill:#fff;}.cls-2{fill:url(#Sfumatura_senza_nome);}.cls-3{fill:#ff3b5f;}.cls-4{fill:#f1f1f1;}</style><linearGradient id="Sfumatura_senza_nome" x1="53.61" y1="18.68" x2="53.61" y2="121.96" gradientTransform="matrix(1, 0, 0, -1, 0, 108)" gradientUnits="userSpaceOnUse"><stop offset="0" stop-color="#0070cb"/><stop offset="1" stop-color="#44ffd9"/></linearGradient></defs><title>logo_white2</title><rect class="cls-1" x="-1.59" y="-1.59" width="111.18" height="111.18"/><path class="cls-2" d="M53.63,12.07c-15.53,0-28.12,13.07-28.12,28.65,0,24.19,16.23,40.45,24,46.86a2,2,0,0,0,3.16-1.09l11-48.65,3.36.75L56.54,85.06a1.48,1.48,0,0,0,1.15,1.73,1.49,1.49,0,0,0,1.21-.28c8.15-7.06,22.81-22.83,22.81-45.85C81.75,25.14,69.16,12.07,53.63,12.07Z"/><path class="cls-3" d="M67.25,29.67a24.68,24.68,0,0,0-29,17.91A1,1,0,0,0,39,48.76l23.11,5,23.11,4.95a1,1,0,0,0,1.18-.79h0A24.69,24.69,0,0,0,67.25,29.67Z"/><ellipse class="cls-4" cx="62.46" cy="95.05" rx="20.8" ry="4.88"/></svg>