<svg id="Livello_1" data-name="Livello 1" xmlns="http://www.w3.org/2000/svg" viewBox="0 0 60 60"><defs><style>.cls-1{fill:#f6bd4b;}.cls-2{fill:#e98016;}.cls-3,.cls-4{fill:none;stroke-linecap:round;stroke-linejoin:round;}.cls-3{stroke:#333;}.cls-4{stroke:#c4c4c4;}</style></defs><title>inSpiaggia - layouts</title><path class="cls-1" d="M17.74,36.12a7.55,7.55,0,0,0,4.9-1.57h0a7.51,7.51,0,0,0,4.89,1.57,7.58,7.58,0,0,0,4.91-1.57h0a7.47,7.47,0,0,0,4.89,1.57,7.51,7.51,0,0,0,4.88-1.56h0a7.56,7.56,0,0,0,4.89,1.56,7.77,7.77,0,0,0,4.64-1.37v-20H24.53a3.77,3.77,0,0,0-3.76,3.76V19.9A3.1,3.1,0,0,0,17.68,23V36.11Z"/><path class="cls-2" d="M32.44,34.55h0c.06.06.13.1.19.15v-20H27.76V36.11A7.5,7.5,0,0,0,32.44,34.55Z"/><path class="cls-2" d="M51.74,34.75v-20H48.49V36A7,7,0,0,0,51.74,34.75Z"/><path class="cls-3" d="M51.74,14.73H24.53a3.77,3.77,0,0,0-3.76,3.76V19.9A3.1,3.1,0,0,0,17.68,23v8.62"/><line class="cls-3" x1="27.76" y1="29.76" x2="27.76" y2="14.73"/><path class="cls-3" d="M43.1,31.41V26.06a2.61,2.61,0,0,1,2.6-2.6V14.73"/><line class="cls-3" x1="32.63" y1="27.7" x2="32.63" y2="14.73"/><path class="cls-3" d="M22.64,34.55a7.55,7.55,0,0,1-4.9,1.57,7.47,7.47,0,0,1-4.89-1.57"/><path class="cls-3" d="M32.44,34.55a7.58,7.58,0,0,1-4.91,1.57,7.51,7.51,0,0,1-4.89-1.57"/><path class="cls-3" d="M42.23,34.55a7.55,7.55,0,0,1-4.9,1.57,7.47,7.47,0,0,1-4.89-1.57"/><path class="cls-3" d="M52,34.55a7.55,7.55,0,0,1-4.9,1.57,7.47,7.47,0,0,1-4.89-1.57"/><path class="cls-3" d="M22.64,44.55a7.55,7.55,0,0,1-4.9,1.57,7.47,7.47,0,0,1-4.89-1.57"/><path class="cls-3" d="M32.44,44.55a7.58,7.58,0,0,1-4.91,1.57,7.51,7.51,0,0,1-4.89-1.57"/><path class="cls-3" d="M42.23,44.55a7.55,7.55,0,0,1-4.9,1.57,7.47,7.47,0,0,1-4.89-1.57"/><path class="cls-3" d="M52,44.55a7.55,7.55,0,0,1-4.9,1.57,7.47,7.47,0,0,1-4.89-1.57"/><path class="cls-3" d="M17.73,38.55a7.55,7.55,0,0,1-4.9,1.57,7.47,7.47,0,0,1-4.89-1.57"/><path class="cls-3" d="M27.53,38.55a7.6,7.6,0,0,1-4.91,1.57,7.49,7.49,0,0,1-4.89-1.57"/><path class="cls-3" d="M37.32,38.55a7.55,7.55,0,0,1-4.9,1.57,7.47,7.47,0,0,1-4.89-1.57"/><path class="cls-3" d="M47.12,38.55a7.6,7.6,0,0,1-4.91,1.57,7.49,7.49,0,0,1-4.89-1.57"/><rect class="cls-4" x="5" y="5" width="50" height="50" rx="3.24"/></svg>