<svg id="Livello_1" data-name="Livello 1" xmlns="http://www.w3.org/2000/svg" viewBox="0 0 60 60"><defs><style>.cls-1{fill:none;stroke:#c4c4c4;stroke-linecap:round;stroke-linejoin:round;}.cls-2{fill:#333;}</style></defs><title>inSpiaggia - layouts</title><rect class="cls-1" x="5" y="5" width="50" height="50" rx="3.24"/><path class="cls-2" d="M37.25,38.09a1.17,1.17,0,0,0-1.55.58,7.69,7.69,0,1,1-11.23-9.61,1.18,1.18,0,0,0,.33-1.63,1.13,1.13,0,0,0-.74-.5,1.18,1.18,0,0,0-.88.17A10,10,0,1,0,37.83,39.64a1.15,1.15,0,0,0,0-.89A1.17,1.17,0,0,0,37.25,38.09Z"/><path class="cls-2" d="M45.18,36.78a1.16,1.16,0,0,0-.71-.55,1.21,1.21,0,0,0-.89.13l-2.06,1.2L37.85,31.4a1.17,1.17,0,0,0-1-.57H29.49l-.32-1.95H38a1.18,1.18,0,0,0,0-2.35H28.8l-.38-2.39a5,5,0,1,0-2.31.37l1.22,7.68a1.17,1.17,0,0,0,1.16,1h7.69l3.93,6.58a1.17,1.17,0,0,0,1,.57,1.21,1.21,0,0,0,.59-.16l3.06-1.79a1.15,1.15,0,0,0,.42-1.6Zm-16-17.27a2.69,2.69,0,1,1-2.68-2.69A2.68,2.68,0,0,1,29.18,19.51Z"/></svg>