<svg id="Livello_1" data-name="Livello 1" xmlns="http://www.w3.org/2000/svg" viewBox="0 0 60 60"><defs><style>.cls-1{fill:none;stroke:#c4c4c4;stroke-linecap:round;stroke-linejoin:round;}.cls-2{fill:#333;}</style></defs><title>inSpiaggia - layouts</title><rect class="cls-1" x="5" y="5" width="50" height="50" rx="3.24"/><path class="cls-2" d="M39.2,31.9c-1.66,1.39-4,2.08-7.1,2.08H27a.79.79,0,0,0-.79.79v8.61a.78.78,0,0,1-.79.78h-4.3a.78.78,0,0,1-.79-.78V16.62a.78.78,0,0,1,.79-.78H32.48A9.82,9.82,0,0,1,39.19,18q2.51,2.19,2.5,6.78Q41.69,29.84,39.2,31.9ZM34.69,21.7a4.76,4.76,0,0,0-3.15-.94H27a.78.78,0,0,0-.79.78v6.77a.79.79,0,0,0,.79.79h4.55a4.52,4.52,0,0,0,3.15-1,4.2,4.2,0,0,0,1.12-3.23A3.94,3.94,0,0,0,34.69,21.7Z"/></svg>