<svg id="Livello_1" data-name="Livello 1" xmlns="http://www.w3.org/2000/svg" viewBox="0 0 60 60"><defs><style>.cls-1{fill:#f6bd4b;}.cls-2,.cls-3{fill:none;stroke-linecap:round;stroke-linejoin:round;}.cls-2{stroke:#333;}.cls-3{stroke:#c4c4c4;}</style></defs><title>inSpiaggia - layouts</title><path class="cls-1" d="M50,30.52H26.62a5.67,5.67,0,0,0-5.61,5,5.4,5.4,0,0,0,1.56-.94h0a7.52,7.52,0,0,0,4.9,1.57,7.57,7.57,0,0,0,4.9-1.57h0a7.49,7.49,0,0,0,4.89,1.57,7.51,7.51,0,0,0,4.88-1.56h0A7.56,7.56,0,0,0,47,36.12a7.55,7.55,0,0,0,4.9-1.57V32.42A1.9,1.9,0,0,0,50,30.52Z"/><path class="cls-2" d="M22.57,34.55a7.55,7.55,0,0,1-4.9,1.57,7.49,7.49,0,0,1-4.89-1.57"/><path class="cls-2" d="M32.37,34.55a7.57,7.57,0,0,1-4.9,1.57,7.52,7.52,0,0,1-4.9-1.57"/><path class="cls-2" d="M42.16,34.55a7.55,7.55,0,0,1-4.9,1.57,7.49,7.49,0,0,1-4.89-1.57"/><path class="cls-2" d="M51.93,34.55A7.55,7.55,0,0,1,47,36.12a7.47,7.47,0,0,1-4.89-1.57"/><path class="cls-2" d="M52,30.52H22.72A3.78,3.78,0,0,0,19,34.29"/><line class="cls-2" x1="37.14" y1="22.12" x2="35.99" y2="32.88"/><path class="cls-2" d="M37.81,15.85c-3.91-.42-7.38,2-7.75,5.51l14.15,1.52C44.59,19.42,41.72,16.27,37.81,15.85Z"/><line class="cls-2" x1="37.93" y1="14.76" x2="37.81" y2="15.85"/><path class="cls-2" d="M22.57,44.55a7.55,7.55,0,0,1-4.9,1.57,7.49,7.49,0,0,1-4.89-1.57"/><path class="cls-2" d="M32.37,44.55a7.57,7.57,0,0,1-4.9,1.57,7.52,7.52,0,0,1-4.9-1.57"/><path class="cls-2" d="M42.16,44.55a7.55,7.55,0,0,1-4.9,1.57,7.49,7.49,0,0,1-4.89-1.57"/><path class="cls-2" d="M51.93,44.55A7.55,7.55,0,0,1,47,46.12a7.47,7.47,0,0,1-4.89-1.57"/><path class="cls-2" d="M17.66,38.55a7.55,7.55,0,0,1-4.9,1.57,7.47,7.47,0,0,1-4.89-1.57"/><path class="cls-2" d="M27.46,38.55a7.6,7.6,0,0,1-4.91,1.57,7.49,7.49,0,0,1-4.89-1.57"/><path class="cls-2" d="M37.25,38.55a7.55,7.55,0,0,1-4.9,1.57,7.47,7.47,0,0,1-4.89-1.57"/><path class="cls-2" d="M47.05,38.55a7.6,7.6,0,0,1-4.91,1.57,7.49,7.49,0,0,1-4.89-1.57"/><rect class="cls-3" x="5" y="5" width="50" height="50" rx="3.24"/></svg>